<?xml version="1.0" encoding="UTF-8" standalone="no"?>
<svg
   xmlns:dc="http://purl.org/dc/elements/1.1/"
   xmlns:cc="http://creativecommons.org/ns#"
   xmlns:rdf="http://www.w3.org/1999/02/22-rdf-syntax-ns#"
   xmlns:svg="http://www.w3.org/2000/svg"
   xmlns="http://www.w3.org/2000/svg"
   xmlns:sodipodi="http://sodipodi.sourceforge.net/DTD/sodipodi-0.dtd"
   xmlns:inkscape="http://www.inkscape.org/namespaces/inkscape"
   version="1.1"
   id="svg2"
   xml:space="preserve"
   width="257"
   height="40.200001"
   viewBox="0 0 257 40.200001"
   sodipodi:docname="logo libera terra.eps"><metadata
     id="metadata8"><rdf:RDF><cc:Work
         rdf:about=""><dc:format>image/svg+xml</dc:format><dc:type
           rdf:resource="http://purl.org/dc/dcmitype/StillImage" /></cc:Work></rdf:RDF></metadata><defs
     id="defs6" /><sodipodi:namedview
     pagecolor="#ffffff"
     bordercolor="#666666"
     borderopacity="1"
     objecttolerance="10"
     gridtolerance="10"
     guidetolerance="10"
     inkscape:pageopacity="0"
     inkscape:pageshadow="2"
     inkscape:window-width="640"
     inkscape:window-height="480"
     id="namedview4" /><g
     id="g10"
     inkscape:groupmode="layer"
     inkscape:label="ink_ext_XXXXXX"
     transform="matrix(1.3333333,0,0,-1.3333333,0,40.2)"><g
       id="g12"
       transform="scale(0.1)"><path
         d="m 416.695,165.613 c 0,-24.234 -22.855,-43.883 -51.047,-43.883 -28.191,0 -51.046,19.649 -51.046,43.883 0,24.242 22.855,43.891 51.046,43.891 28.192,0 51.047,-19.649 51.047,-43.891"
         style="fill:#27963c;fill-opacity:1;fill-rule:nonzero;stroke:none"
         id="path14" /><path
         d="m 1745.89,25.8984 c -0.58,-0.0586 -1.14,-0.0781 -1.69,-0.0781 -3.87,0 -6.97,1.1524 -9.59,3.5742 -2.12,2.1485 -4.05,4.668 -3.63,10.7422 v 0.0977 c 2.56,21.7969 34.47,56.1328 60.2,71.1326 9.77,5.723 26.28,11.817 37.61,11.817 4.6,0 8.06,-1.016 10.27,-3.028 8.83,-7.968 -0.68,-30.2341 -23.12,-54.1208 -20.13,-21.4258 -51.56,-39.4336 -70.05,-40.1368 M 1283.5,83.8281 c 3.17,4.2383 6.58,8.3985 10.41,12.6953 22.03,24.9026 38.28,30.0976 44.24,31.1716 9.98,1.817 14.49,2.09 17.7,-0.351 3.39,-2.578 2.27,-9.102 2.26,-9.16 -4.16,-15.762 -28.75,-28.8676 -71.14,-38.0863 l -7.46,-1.6407 z m 635.37,-11.1914 c -7.02,2.7344 -15.43,0.6446 -19.48,-4.7461 -17.1,-22.7929 -35.06,-35.8398 -53.49,-38.8867 -2.72,-0.4297 -5.48,0.2344 -7.42,1.7774 -1.9,1.5039 -2.76,3.6914 -2.28,5.8203 0.3,1.3476 0.81,2.8711 1.5,4.5507 1.17,2.8711 6.11,10.918 8.18,14.2579 8.97,14.4531 22.55,36.289 27.15,54.3558 3.49,13.886 -2.15,25.761 -15.51,32.617 -20.27,10.375 -53.39,6.543 -80.53,-9.317 -15.36,-8.984 -33.24,-23.613 -47.82,-39.1012 -6.34,-7.0312 -11.77,-13.9062 -16.1,-20.3906 -20.48,-26.6211 -51.64,-46.6015 -74.18,-47.6562 l -1.37,-0.0391 c -1.15,-0.0976 -2.15,-0.1367 -2.81,-0.1172 l -2.82,0.0196 -0.25,2.2656 c -0.37,3.457 0.57,11.7969 11.06,29.0625 9.53,16.2304 17.96,33.2226 14.95,47.4996 -3.05,13.438 -15.62,22.032 -36.3,32.344 l -2.8,1.406 1.88,2.168 c 2.39,2.793 3.69,5.899 4.08,9.77 0.32,3.195 0.26,13.945 -14.22,18.379 -13.16,4.023 -27.89,-0.223 -34.3,-9.871 -3.73,-5.715 -5.13,-15.543 -1.26,-21.032 2.24,-3.203 3.98,-4.941 5.05,-5.859 l 1.34,-1.133 -0.69,-1.484 C 1575.26,118.203 1557.39,80.6641 1544.49,63.8281 1530,44.9219 1498.55,26.8555 1478.54,25.918 l -1.36,-0.0391 c -1.16,-0.0976 -2.18,-0.1172 -2.8,-0.1172 l -2.82,0.0196 -0.25,2.2656 c -0.37,3.457 0.57,11.7969 11.05,29.0625 9.53,16.2304 17.97,33.2226 14.95,47.4996 -3.04,13.418 -15.62,22.032 -36.29,32.344 l -2.81,1.406 1.89,2.188 c 2.38,2.773 3.69,5.879 4.08,9.75 0.32,3.195 0.25,13.945 -14.23,18.379 -13.15,4.023 -27.88,-0.223 -34.29,-9.871 -3.75,-5.715 -5.15,-15.543 -1.27,-21.032 2.23,-3.164 3.95,-4.921 5.01,-5.839 l 1.37,-1.153 -0.74,-1.504 c -3.28,-6.601 -20.46,-40.7614 -36.28,-63.984 -16.76,-24.5703 -54,-39.043 -80.53,-40.1758 -11.2,-0.5274 -26.26,4.5898 -32.37,14.1211 -1.77,2.5781 -2.72,5.8008 -2.72,9.2969 v 2.0898 l 2.52,0.3906 c 31.85,4.8633 52.36,8.9258 69.49,16.4453 29.23,12.8907 47.32,28.6329 49.65,43.2231 2.14,13.496 1.99,16.875 -0.96,22.675 -2.37,5.723 -7.62,10.762 -15.72,15.118 -4.24,2.289 -19.96,9.32 -43.85,3.589 -21.1,-5.347 -41.63,-19.078 -61.02,-40.836 -15.06,-16.7378 -25.15,-33.105 -29.22,-47.3237 -3.95,-13.9258 -2.61,-26.211 3.99,-36.543 13.71,-21.81642 40.77,-26.660175 61.07,-26.89455 l 1.99,-0.019531 c 25.84,0 42.6,5.078121 60.98,14.550781 17.96,8.9844 31.5,20.8398 44.19,38.3789 10.09,13.9649 17.82,29.6289 24.46,42.168 l 0.35,0.6445 c 1.91,3.5938 3.56,6.6796 4.87,9.0236 2.42,4.336 8.42,6.25 13.69,4.355 5.82,-2.09 14.64,-5.234 13.46,-11.113 -1.32,-6.6406 -6.31,-17.3828 -14.03,-30.2343 -7.89,-12.7539 -12.36,-23.3985 -13.73,-32.5782 -1.77,-9.6875 0,-17.6367 5.26,-23.6523 4.35,-5.29298 13.06,-11.542981 30.13,-11.542981 l 4.65,0.019531 c 18.15,1.09375 34.73,6.54297 56.28,19.92185 22.05,13.711 32.14,29.5508 42.19,44.4141 l 0.4,0.5859 c 6.72,9.9414 11.42,19.2578 15.58,27.4805 2.28,4.5117 4.3,8.4959 6.45,12.3439 2.46,4.394 8.38,6.25 13.69,4.355 7.72,-2.754 14.55,-5.683 13.46,-11.113 -1.32,-6.6406 -6.31,-17.3828 -14.02,-30.2343 -7.89,-12.7735 -12.37,-23.418 -13.72,-32.5782 -1.77,-9.6875 -0.01,-17.6367 5.25,-23.6718 4.34,-5.27348 13.05,-11.523481 30.13,-11.523481 l 4.64,0.019531 c 17.95,1.09375 37.37,8.14453 55.94,20.39065 0.49,0.3125 0.93,0.625 1.37,0.9375 l 4.12,2.8125 1.71,-2.9688 c 1.98,-3.4179 4.56,-6.582 7.68,-9.3554 8.56,-7.63676 20.51,-11.835981 33.64,-11.835981 l 2.34,0.019531 c 16.31,0.58594 34.31,7.12891 54.87,20.01955 l 3.26,2.0508 1.53,-3.1055 c 0.63,-1.3086 1.41,-2.6953 2.35,-4.1797 4.12,-4.9805 13.07,-11.21093 31.23,-11.21093 18.36,0 35.32,5.64453 50.39,16.81643 12.06,8.6133 23.32,19.9804 34.2,34.5117 4.58,6.1328 1.53,14.1602 -6.44,17.2656"
         style="fill:#231f20;fill-opacity:1;fill-rule:nonzero;stroke:none"
         id="path16" /><path
         d="m 1249.53,185.484 c -0.21,7.227 -7.99,12.754 -16.87,12.118 -8.21,-0.586 -14.36,-6.258 -14.14,-12.93 0.72,-22.578 -2.28,-54.555 -13.13,-84.613 -9.8,-27.1684 -29.15,-60.7035 -65.64,-66.0942 -10.47,-1.5429 -20.77,0.7032 -26.9,5.8594 -3.94,3.3399 -5.41,7.3242 -4.26,11.5039 1.41,4.5703 5.06,7.0117 9.34,6.3282 4.03,-0.6055 8.16,0.0585 11.58,1.9531 3.87,2.1094 6.31,5.4492 6.76,9.2578 0.8,6.8164 -5.86,12.7148 -14.21,13.7305 -2.03,0.2539 -4.01,0.3711 -5.95,0.3711 -19.94,0 -34.09,-12.6563 -37.81,-26.1329 -3.46,-12.4414 0.98,-25 12.17,-34.4336 10.77,-9.082 25.92,-14.08199 42.64,-14.08199 4.05,0 8.16,0.29297 12.22,0.89844 84.32,12.48045 106.02,117.96925 104.2,176.26525"
         style="fill:#231f20;fill-opacity:1;fill-rule:nonzero;stroke:none"
         id="path18" /><path
         d="m 1124.29,259.371 c 10,3.094 21.26,4.715 32.57,4.715 19.19,0 37.91,-4.559 54.1,-13.184 l 2.5,-1.336 -1.56,-2.07 c -27.68,-37.109 -70.02,-53.691 -98.52,-53.691 -0.61,0 -1.21,0 -1.82,0.019 -17.6,0.457 -27.03,6.864 -28.06,19.024 -1.76,20.722 13.49,38.113 40.79,46.523 m -13.74,-90.683 c 35.91,-0.969 88.87,17.48 123.75,60.019 l 2.34,2.859 2.68,-2.675 c 30.3,-30.438 65.45,-35.547 89.63,-34.481 33.33,1.426 66.81,15.633 89.84,37.324 6.03,5.692 4.3,14.442 -3.59,18.379 l -0.76,0.371 c -6.22,3.106 -14.37,2.227 -19.13,-2.257 -17.54,-16.504 -43.31,-27.637 -67.99,-28.7 -25.02,-1.035 -47.73,8.262 -65.35,26.719 -2.74,2.859 -5.64,5.633 -8.61,8.231 l -1.33,1.183 0.73,1.473 c 4.68,9.347 8.39,19.23 11.14,29.531 1.83,6.926 -4.14,13.645 -12.82,14.59 l -0.9,0.098 c -7.8,0.839 -15.02,-3.329 -16.72,-9.551 -1.51,-5.528 -3.34,-10.918 -5.51,-16.133 l -1.23,-2.969 -3.3,1.614 c -20.35,9.91 -43.56,14.968 -66.58,14.968 -14.89,0 -29.67,-2.109 -43.6,-6.394 -40.15,-12.375 -63.43,-39.875 -60.72,-71.758 2.15,-25.305 24.38,-41.563 58.03,-42.441"
         style="fill:#231f20;fill-opacity:1;fill-rule:nonzero;stroke:none"
         id="path20" /><path
         d="m 937.484,32.3438 c -0.586,-0.0391 -1.156,-0.0586 -1.703,-0.0586 -3.906,0 -6.937,1.1328 -9.582,3.5742 -2.105,2.1289 -4.051,4.6289 -3.636,10.7226 l 0.011,0.1172 c 2.563,21.7774 34.469,56.1138 60.199,71.1138 9.766,5.722 26.267,11.816 37.597,11.816 4.61,0 8.07,-1.016 10.29,-3.008 8.83,-7.988 -0.68,-30.2343 -23.13,-54.121 C 987.402,51.0742 955.984,33.0664 937.484,32.3438 M 542.367,75.3906 c -0.847,-1.5039 -2.57,-2.5976 -4.59,-2.7539 -2.625,-0.2148 -6.547,0.0781 -10.89,2.4805 -5.141,2.8516 -6.25,6.9726 -5.305,13.6523 1.465,10.4102 10.953,12.6175 16.031,12.3245 5.075,-0.274 7.215,-0.84 9.551,-4.1018 2.016,-2.8125 2.285,-9.1406 -4.797,-21.6016 M 73.0078,75.7813 C 62.082,57.3633 51.543,48.3789 40.832,48.3789 c -0.3281,0 -0.6562,0.0195 -0.9843,0.0391 -5.1289,0.1562 -8.1485,1.5429 -8.8985,4.1015 -2.0156,6.875 12.9141,20.0782 19.1797,22.9102 5.8203,2.6367 12.5195,3.9648 19.9102,3.9648 h 4.9375 z M 150.641,177.563 c 9.625,18.917 20.187,34.152 32.32,46.582 7.465,7.648 34.008,32.589 62.375,32.589 1.973,0 3.937,-0.129 5.836,-0.371 14.875,-1.984 19.734,-8.457 21.199,-13.547 3.649,-12.644 -9.211,-31.14 -23.141,-39.218 -22.906,-13.27 -58.488,-24.285 -95.183,-29.473 l -5.551,-0.789 z m 214.422,26.875 c 26.714,0 48.445,-17.598 48.445,-39.239 0,-21.644 -21.731,-39.242 -48.445,-39.242 -26.711,0 -48.446,17.598 -48.446,39.242 0,21.641 21.735,39.239 48.446,39.239 m 114.98,-54.887 c 15.891,36 33.707,64.82 56.078,90.699 2.102,2.5 5.363,5.184 9.664,7.969 1.766,1.152 4.235,1.406 6.024,0.683 2.207,-0.859 3.449,-3.058 3.441,-6.164 -0.012,-6.961 -2.363,-22.617 -7.578,-35.633 -10.664,-26.64 -30.742,-45.89 -63.192,-60.601 l -7.23,-3.262 z M 637.371,92.4219 c 3.176,4.2383 6.578,8.3981 10.406,12.6951 22.028,24.903 38.282,30.098 44.25,31.172 9.45,1.719 14.286,2.246 17.696,-0.351 3.379,-2.579 2.257,-9.102 2.246,-9.161 -4.16,-15.761 -28.746,-28.8668 -71.129,-38.0856 l -7.461,-1.6406 z M 1035.43,35.1563 c -2.06,-0.254 -4.16,0.2734 -5.7,1.4648 -1.59,1.2109 -2.37,2.9297 -2.15,4.6875 0.21,1.7187 0.78,3.8086 1.68,6.2305 0.72,1.8945 3.33,6.4453 8.22,14.3164 8.99,14.4922 22.55,36.3086 27.14,54.3745 3.51,13.868 -2.14,25.762 -15.5,32.598 -20.29,10.375 -53.397,6.547 -80.53,-9.316 C 953.207,130.508 935.332,115.898 920.77,100.41 915.258,94.2969 910.316,88.125 906.117,82.0898 885.488,57.3242 856.348,39.4531 835.133,38.457 l -1.363,-0.0195 c -1.114,-0.1172 -2.125,-0.1367 -2.747,-0.1367 l -2.871,-0.0195 -0.254,2.3046 c -0.378,3.4375 0.555,11.7969 11.051,29.0625 9.535,16.2305 17.961,33.2226 14.953,47.5196 -3.05,13.418 -15.625,22.012 -36.304,32.344 l -2.797,1.383 1.875,2.187 c 2.402,2.781 3.699,5.879 4.09,9.754 0.41,4.094 -0.161,14.082 -14.227,18.391 -13.141,4.011 -27.891,-0.247 -34.297,-9.883 -3.734,-5.715 -5.14,-15.539 -1.269,-21.035 2.187,-3.102 3.898,-4.84 4.957,-5.758 l 1.414,-1.231 -0.864,-1.543 C 764.48,120.547 743.832,84.0039 740.313,77.8125 719.457,46.9727 683.66,34.8438 657.086,33.6914 646.098,33.1445 631.02,38.0078 624.719,47.832 c -1.766,2.5586 -2.723,5.8008 -2.723,9.2969 v 2.0899 l 2.535,0.3906 c 31.848,4.8633 52.348,8.9258 69.469,16.4453 29.227,12.8711 47.328,28.6333 49.652,43.2223 2.149,13.477 2.008,16.875 -0.957,22.676 -2.363,5.723 -7.621,10.766 -15.718,15.121 -4.239,2.297 -19.922,9.328 -43.848,3.586 -21.098,-5.344 -41.641,-19.097 -61.012,-40.855 -10.668,-11.836 -20.215,-25.0394 -25.16,-36.1527 l -0.84,-1.0546 c -4.191,-3.5938 -20.183,-4.9024 -20.183,-4.9024 0.941,2.9102 2.367,7.4414 2.562,8.7891 1.453,10.0781 -0.859,18.8676 -6.898,25.8396 -10.16,11.114 -24.641,16.094 -39.7,13.574 -17.55,-2.539 -33.894,-13.886 -37.753,-30.9175 -2.028,-8.9453 -2.043,-14.5117 0.078,-22.8125 1.699,-6.6602 5.425,-11.1524 11.558,-15.9571 6.129,-4.8046 14.461,-6.1718 14.461,-6.1718 0,0 -4.144,-5.4883 -11.398,-10.4883 -14.43,-9.9805 -30.574,-14.8828 -42.832,-13.4766 -6.727,0.7617 -11.989,3.3789 -15.645,7.7735 -12.984,14.7851 -2.801,46.0156 4.434,63.3007 l 6.664,14.4146 1.539,0.332 c 34.082,7.5 58.144,19.921 78.008,40.277 15.383,15.578 26.804,33.43 37.023,57.891 6.43,15.988 9.254,29.718 8.403,40.773 -0.7,14.109 -6.676,23.652 -17.77,28.406 -5.152,2.071 -15.93,4.602 -29.574,-2.176 -8.524,-4.218 -16.403,-10.597 -23.43,-18.964 C 482.027,219.43 447.102,154.281 425.629,106.191 414.883,82.1484 410.797,60.293 413.805,42.9688 l 0.097,-0.586 -0.418,-0.918 c -2.132,-4.2187 -6.312,-7.207 -12.464,-8.9257 -12.172,-3.4375 -27.692,-1.0352 -36.102,2.9882 -17.438,8.3399 -22.977,24.1016 -16.934,48.1836 1.758,7.0313 4.204,14.2774 7.286,21.6601 3.207,-0.351 6.472,-0.547 9.793,-0.547 41.093,0 74.531,27.09 74.531,60.375 0,33.293 -33.438,60.371 -74.531,60.371 -41.098,0 -74.536,-27.078 -74.536,-60.371 0,-20.804 13.078,-39.203 32.926,-50.062 -9.129,-14.688 -19.848,-32.0511 -26.773,-43.594 l -0.617,-1.0352 c -8.352,-13.9258 -16.997,-28.3398 -32.7,-37.3047 -22.976,-13.125 -47.851,-8.789 -78.269,13.6133 -6.012,4.4336 -12.02,9.1992 -17.824,13.7891 -15.508,12.3047 -31.297,24.8242 -49.434,33.2617 l -2.266,1.0351 0.891,1.9922 c 4.73,10.5665 9.105,21.6605 13.336,32.3825 2.094,5.293 4.191,10.625 6.355,15.938 l 0.61,1.504 1.933,0.215 c 32.59,3.441 63.883,11.695 84.395,18.011 38.566,11.895 84.039,33.672 81.707,69.895 -1.027,15.918 -9.66,29.336 -24.305,37.781 -15.105,8.731 -35.062,11.094 -54.73,6.484 -42.348,-9.89 -75.735,-39.707 -102.051,-91.16 -2.606,-5.09 -5.102,-10.234 -7.512,-15.41 l -0.75,-1.601 -2.121,-0.02 c -5.84,-0.07 -11.441,0.059 -16.6327,0.359 -38.0859,2.188 -51.5312,23.332 -51.4062,42.383 0.1367,21.817 18.0156,45.157 48.4414,51.875 6.4105,1.418 10.6215,6.399 10.5505,11.778 l -0.004,0.586 c -0.097,7.91 -9.3473,13.789 -18.7887,11.769 -38.4375,-8.223 -66.793,-32.59 -71.8086,-63.684 -5.76564,-35.781 18.5976,-68.113 57.9375,-76.878 8.6367,-1.934 18.2266,-3.145 28.4998,-3.594 l 4.098,-0.176 -5.4806,-13.047 c -2.3008,-5.508 -4.6094,-11.015 -6.9531,-16.504 -0.5469,-1.269 -1.1954,-2.851 -1.9375,-4.687 l -3.2266,-7.754 -2.5664,0.312 c -4.2344,0.508 -8.6406,0.762 -13.4649,0.782 C 37.9609,104.375 1.70313,85.4688 0.046875,55.0391 -0.546875,44.0234 4.56641,34.3359 14.082,28.457 c 9.6797,-5.9961 22.8477,-7.4609 36.1133,-4.0234 20.3945,5.3125 37.4883,20 52.2657,44.9023 l 1.461,2.461 2.91,-1.3672 c 15.984,-7.5977 29.32,-18.7695 42.215,-29.5703 9.68,-8.1055 19.621,-16.4453 30.582,-23.2227 24.418,-15.09764 48.113,-20.56639 69.996,-16.17186 21.816,4.375 42.484,18.30076 63.172,42.61716 l 3.441,4.043 2.043,-4.6289 c 2.422,-5.5273 5.844,-10.625 10.172,-15.1758 15.379,-16.1523 43.246,-24.96092 69.32,-21.87499 10.157,1.21094 19.258,4.14059 27.055,8.74999 l 2.246,1.3281 1.875,-1.6601 c 10.586,-9.43361 25.813,-14.414081 44.024,-14.414081 27.281,0 51.574,13.339881 64.84,26.054681 13.273,12.6953 20.296,23.8867 20.296,23.8867 l 32.313,4.8633 c 0,0 -0.777,-7.8906 6.047,-19.375 12.687,-21.3281 41.183,-26.58202 61.48,-26.8164 l 1.84,-0.01953 c 25.848,0 43.391,6.30863 61.781,15.80083 18.914,9.4726 34.371,22.9492 45.989,40.0976 1.8,2.0703 3.906,5.5664 8.32,13.2422 3.226,5.625 7.289,13.1836 11.387,20.7812 l 0.261,0.4883 c 3.571,6.6209 7.016,13.0269 9.973,18.3009 2.449,4.394 8.344,6.25 13.695,4.355 7.715,-2.754 14.547,-5.683 13.457,-11.113 -1.316,-6.641 -6.308,-17.3632 -14.027,-30.2343 -7.883,-12.7734 -12.363,-23.4179 -13.723,-32.5586 -1.769,-9.707 -0.004,-17.6562 5.254,-23.6718 4.36,-5.293 13.071,-11.5235 30.141,-11.5235 h 4.535 c 16.828,1.0156 35.086,7.3633 52.695,18.3203 l 3.286,2.0508 1.503,-3.1445 c 2.032,-4.2578 4.985,-8.1055 8.789,-11.5039 8.555,-7.6172 20.5,-11.81644 33.629,-11.81644 h 2.336 C 955.391,7.5 973.379,14.0625 993.945,26.9531 l 3.262,2.0313 1.523,-3.1055 c 0.645,-1.3086 1.43,-2.6953 2.35,-4.1797 4.13,-4.9804 13.08,-11.2109 31.23,-11.2109 16.79,0 32.36,4.7656 46.42,14.082 -7.54,7.3242 -11.33,16.1914 -10.9,25.3711 -10.58,-8.418 -21.4,-13.3984 -32.4,-14.7851"
         style="fill:#231f20;fill-opacity:1;fill-rule:nonzero;stroke:none"
         id="path22" /></g></g></svg>
